<svg width="137" height="28" viewBox="0 0 137 28" fill="none" xmlns="http://www.w3.org/2000/svg">
<path d="M0.64 28L13.12 -1.90735e-06H19.52L32.04 28H25.24L15 3.28H17.56L7.28 28H0.64ZM6.88 22L8.6 17.08H23L24.76 22H6.88ZM40.145 28V-1.90735e-06H46.625V28H40.145ZM65.0728 28L55.9128 -1.90735e-06H62.6328L70.5928 24.8H67.2328L75.5528 -1.90735e-06H81.5528L89.5528 24.8H86.3128L94.4728 -1.90735e-06H100.673L91.5128 28H84.5528L77.4728 6.24H79.3128L72.0328 28H65.0728ZM104.873 28L117.353 -1.90735e-06H123.753L136.273 28H129.473L119.233 3.28H121.793L111.513 28H104.873ZM111.113 22L112.833 17.08H127.233L128.993 22H111.113Z" fill="white"/>
</svg>
