<svg width="59" height="36" viewBox="0 0 59 36" fill="none" xmlns="http://www.w3.org/2000/svg">
<path d="M15.5 35.5L1 1H9L18 24.5H19L27 6.5L30.5 13.5L27.5 22.5H33.5L35.5 27.5H25L21.5 35.5H15.5Z" fill="white"/>
<path d="M26 5L23.5 1H34L45 25.5L51 12.5H57.5L47.5 35.5H42L29 5H26Z" fill="white"/>
<path d="M15.5 35.5L1 1H9L18 24.5H19L27 6.5L30.5 13.5L27.5 22.5H33.5L35.5 27.5H25L21.5 35.5H15.5Z" stroke="white"/>
<path d="M26 5L23.5 1H34L45 25.5L51 12.5H57.5L47.5 35.5H42L29 5H26Z" stroke="white"/>
</svg>
